<?xml version="1.0" encoding="utf-8"?>
<!-- Generator: Adobe Illustrator 22.0.1, SVG Export Plug-In . SVG Version: 6.00 Build 0)  -->
<svg version="1.1" id="레이어_3" xmlns="http://www.w3.org/2000/svg" xmlns:xlink="http://www.w3.org/1999/xlink" x="0px"
	 y="0px" viewBox="0 0 285.3 83.5" style="enable-background:new 0 0 285.3 83.5;" xml:space="preserve">
<style type="text/css">
	.st0{fill:#FFFFFF;}
	.st1{fill:#EC6C5F;}
	.st2{display:none;}
	.st3{display:inline;fill:#1F2020;}
	.st4{display:inline;fill:#EC6C5F;stroke:#EC6C5F;}
	.st5{display:inline;fill:#FFFFFF;stroke:#1F2020;stroke-miterlimit:10;}
</style>
<g>
	<path class="st0" d="M176.5,48.4L147.9,0h19l18.9,32.3L204.8,0h18.8l-29,48.3v29.2c0,5.8-2.9,6-18,6V48.4z"/>
	<path class="st0" d="M104.4,83.5H56.2V0c11.3,0,18.1,0.5,18.1,6c0,5.9,0,62.3,0,62.3h16.4c0,0,7.2,0,8.9-5.1
		C101.6,57.2,121,0,121,0c14,0,18.4,1.1,19.9,5.3l26.4,78.2h-17.8l-19.6-60.8l-17.5,54.1C112.4,76.7,110.7,83.3,104.4,83.5z"/>
	<path class="st0" d="M0,0.3v83.2h17.9V23.1l3.6,1.7v23.8c24.8,0,26.5-0.2,26.4-10V12.3C47.9,0.3,46.6,0.3,0,0.3z"/>
	<g>
		<path class="st0" d="M266.8,15.5h18.4l0.2,55.1c0,13-3.3,13-13.5,13c-5.5,0-9,0-13.8,0c-11,0-13.7-3-13.7-13V51.4h19v22.4h3.1
			C266.5,73.8,266.8,14.8,266.8,15.5z"/>
		<path class="st1" d="M282.2,13h-12.4c-1.7,0-3-1.4-3-3V3.3c0-1.6,1.3-3,3-3h12.4c1.6,0,3,1.4,3,3V10C285.2,11.6,283.8,13,282.2,13
			z"/>
	</g>
</g>
<g class="st2">
	<path class="st4" d="M220,80h-70.1c-1.6,0-3-1.3-3-3V30.6c0-1.6,1.4-3,3-3H220c1.6,0,3,1.4,3,3V77C223,78.6,221.6,80,220,80z"/>
</g>
</svg>
