<?xml version="1.0" encoding="utf-8"?>
<!-- Generator: Adobe Illustrator 22.0.1, SVG Export Plug-In . SVG Version: 6.00 Build 0)  -->
<svg version="1.1" id="레이어_1" xmlns="http://www.w3.org/2000/svg" xmlns:xlink="http://www.w3.org/1999/xlink" x="0px"
	 y="0px" viewBox="0 0 500 200" style="enable-background:new 0 0 500 200;" xml:space="preserve">
<style type="text/css">
	.st0{display:none;fill:#EC6C5F;}
	.st1{display:none;}
	.st2{display:inline;fill:#FFFFFF;}
	.st3{display:inline;}
	.st4{fill:#FFFFFF;}
	.st5{display:inline;fill:#EC6C5F;}
	.st6{fill:#212121;}
</style>
<path class="st0" d="M162.6,109.3l4.4,9.8c0,0-4.2-4.5-9.9-7L162.6,109.3z"/>
<g class="st1">
	<path class="st2" d="M132,119.1l17.8-38.3l17.2,38.3c0,0-8.1-8.8-17.3-8.8v-5.1h5.3L149.7,93l-11.9,26.1H132z"/>
	<polygon class="st2" points="110.3,119.1 110.3,80.8 115.8,80.8 115.8,114 131.5,114 128.9,119.1 	"/>
	<polygon class="st2" points="171.8,119.1 177.2,119.1 177.2,101.3 189,80.8 182.8,80.8 174.5,95.2 166.3,80.8 160,80.8 
		171.8,101.3 	"/>
	<path class="st2" d="M92.4,80.8H87l0.1,38.3h5.4l-0.1-33.3l9.5,5.6l-7.5,5.8v5c0,0,12.7,0.7,12.7-10.7S92.4,80.8,92.4,80.8z"/>
	<g class="st3">
		<path class="st4" d="M199.8,103.5h8.3v3.7h-8.3V103.5z"/>
	</g>
	<path class="st2" d="M259.4,119c-2.2,0-4.3-0.4-6.2-1.3s-3.5-2.2-4.8-3.9c-1.4-1.7-2.4-3.7-3.2-6.1s-1.1-5-1.1-8
		c0-2.9,0.4-5.6,1.1-7.9c0.8-2.3,1.8-4.3,3.2-6s3-2.9,4.8-3.8c1.9-0.9,3.9-1.3,6.2-1.3s4.3,0.4,6.2,1.3c1.9,0.9,3.5,2.1,4.8,3.8
		c1.4,1.7,2.4,3.7,3.2,6c0.8,2.3,1.1,5,1.1,7.9s-0.4,5.6-1.1,8c-0.8,2.4-1.8,4.4-3.2,6.1c-1.4,1.7-3,3-4.8,3.9
		C263.7,118.6,261.7,119,259.4,119z M259.4,116.3c1.8,0,3.5-0.4,5-1.2c1.5-0.8,2.8-1.9,3.9-3.3s1.9-3.2,2.5-5.2s0.9-4.3,0.9-6.8
		s-0.3-4.8-0.9-6.8s-1.4-3.7-2.5-5.1s-2.4-2.5-3.9-3.2c-1.5-0.8-3.2-1.1-5-1.1s-3.5,0.4-5,1.1c-1.5,0.8-2.8,1.8-3.8,3.2
		c-1.1,1.4-1.9,3.1-2.5,5.1s-0.9,4.3-0.9,6.8s0.3,4.8,0.9,6.8c0.6,2,1.4,3.8,2.5,5.2c1.1,1.4,2.3,2.5,3.8,3.3
		C255.9,115.9,257.6,116.3,259.4,116.3z"/>
	<path class="st2" d="M280.7,81.4h3v16.1h19.2V81.4h3v37h-3v-18.3h-19.2v18.3h-3V81.4z"/>
	<path class="st2" d="M339.3,118.4h-2.9V96.2c0-1.9,0-3.7,0.2-5.4c0.1-1.7,0.2-3.5,0.3-5.3h-0.3l-4.2,7.4l-15.1,25.5h-3.1v-37h2.9
		v21.9c0,1.8,0,3.7-0.1,5.5s-0.2,3.7-0.3,5.5h0.3l4.1-7.5l15.1-25.4h3.1V118.4z"/>
	<path class="st2" d="M372.6,118.4h-2.9V96.2c0-1.9,0-3.7,0.2-5.4c0.1-1.7,0.2-3.5,0.3-5.3h-0.3l-4.2,7.4l-15.1,25.5h-3.1v-37h2.9
		v21.9c0,1.8,0,3.7-0.1,5.5s-0.2,3.7-0.3,5.5h0.3l4.1-7.5l15.1-25.4h3.1V118.4z"/>
	<path class="st2" d="M380.8,81.4h3v37h-3V81.4z"/>
	<path class="st2" d="M392,81.4h20.4V84H395v13.5h14.7v2.6H395v15.7h18v2.6h-21V81.4z"/>
	<g class="st3">
		<path class="st4" d="M229.2,119.3c-2.2,0-4.1-0.5-5.7-1.4c-1.6-0.9-2.9-2.3-3.9-4.2l3.7-6.9c-1.5,6.3,0.6,8,1.7,8.7
			c1.1,0.7,2.5,1,4,1c2.2,0,3.9-0.7,5-2c1.1-1.4,1.6-3.6,1.6-6.6V81h3.1v27.2c0,1.5-0.2,3-0.5,4.3s-0.9,2.5-1.7,3.5s-1.8,1.8-3,2.4
			C232.4,119,231,119.3,229.2,119.3z"/>
	</g>
	<path class="st5" d="M162.6,109.3l4.4,9.8c0,0-4.2-4.5-9.9-7L162.6,109.3z"/>
</g>
<g class="st1">
	<path class="st2" d="M132,119.1l17.8-38.3l17.2,38.3c0,0-8.1-8.8-17.3-8.8v-5.1h5.3L149.7,93l-11.9,26.1H132z"/>
	<polygon class="st2" points="110.3,119.1 110.3,80.8 115.8,80.8 115.8,114 131.5,114 128.9,119.1 	"/>
	<polygon class="st2" points="171.8,119.1 177.2,119.1 177.2,101.3 189,80.8 182.8,80.8 174.5,95.2 166.3,80.8 160,80.8 
		171.8,101.3 	"/>
	<path class="st2" d="M92.4,80.8H87l0.1,38.3h5.4l-0.1-33.3l9.5,5.6l-7.5,5.8v5c0,0,12.7,0.7,12.7-10.7S92.4,80.8,92.4,80.8z"/>
	<g class="st3">
		<path class="st4" d="M199.8,103.5h8.3v3.7h-8.3V103.5z"/>
	</g>
	<path class="st2" d="M259.4,119c-2.2,0-4.3-0.4-6.2-1.3s-3.5-2.2-4.8-3.9c-1.4-1.7-2.4-3.7-3.2-6.1s-1.1-5-1.1-8
		c0-2.9,0.4-5.6,1.1-7.9c0.8-2.3,1.8-4.3,3.2-6s3-2.9,4.8-3.8c1.9-0.9,3.9-1.3,6.2-1.3s4.3,0.4,6.2,1.3c1.9,0.9,3.5,2.1,4.8,3.8
		c1.4,1.7,2.4,3.7,3.2,6c0.8,2.3,1.1,5,1.1,7.9s-0.4,5.6-1.1,8c-0.8,2.4-1.8,4.4-3.2,6.1c-1.4,1.7-3,3-4.8,3.9
		C263.7,118.6,261.7,119,259.4,119z M259.4,116.3c1.8,0,3.5-0.4,5-1.2c1.5-0.8,2.8-1.9,3.9-3.3s1.9-3.2,2.5-5.2s0.9-4.3,0.9-6.8
		s-0.3-4.8-0.9-6.8s-1.4-3.7-2.5-5.1s-2.4-2.5-3.9-3.2c-1.5-0.8-3.2-1.1-5-1.1s-3.5,0.4-5,1.1c-1.5,0.8-2.8,1.8-3.8,3.2
		c-1.1,1.4-1.9,3.1-2.5,5.1s-0.9,4.3-0.9,6.8s0.3,4.8,0.9,6.8c0.6,2,1.4,3.8,2.5,5.2c1.1,1.4,2.3,2.5,3.8,3.3
		C255.9,115.9,257.6,116.3,259.4,116.3z"/>
	<path class="st2" d="M238.7,81L238.7,81l-3.1,0v0h-1.9v0.5h1.9v26.4c0,3-0.5,5.2-1.6,6.6c-1.1,1.3-2.8,2-5,2c-1.5,0-2.9-0.3-4-1
		c-1.1-0.7-3.2-2.4-1.7-8.7l-3.7,6.9c1,1.9,2.3,3.3,3.9,4.2c1.6,0.9,3.5,1.4,5.7,1.4c1.8,0,3.2-0.3,4.3-0.9c1.2-0.6,2.2-1.4,3-2.4
		c0.8-1,1.4-2.2,1.7-3.5s0.5-2.8,0.5-4.3V81.5h1.9V81H238.7z"/>
	<polygon class="st2" points="307.9,81.9 307.9,81.4 305.9,81.4 302.9,81.4 300.9,81.4 300.9,81.9 302.9,81.9 302.9,97.5 
		283.7,97.5 283.7,81.9 285.7,81.9 285.7,81.4 283.7,81.4 280.7,81.4 278.7,81.4 278.7,81.9 280.7,81.9 280.7,117.9 278.7,117.9 
		278.7,118.4 280.7,118.4 283.7,118.4 285.7,118.4 285.7,117.9 283.7,117.9 283.7,100.1 302.9,100.1 302.9,117.9 300.9,117.9 
		300.9,118.4 302.9,118.4 305.9,118.4 307.9,118.4 307.9,117.9 305.9,117.9 305.9,81.9 	"/>
	<path class="st2" d="M341.3,81.9v-0.5h-2v0h-3.1l-15.1,25.4l-4.1,7.5h-0.3c0.1-1.8,0.2-3.7,0.3-5.5c0.1-1.8,0.1-3.7,0.1-5.5V81.9h2
		v-0.5h-2v0h-2.9v0h-2.1v0.5h2.1v36.5h3.1l15.1-25.5l4.2-7.4h0.3c-0.1,1.8-0.2,3.6-0.3,5.3c-0.2,1.7-0.2,3.5-0.2,5.4v21.7h-2.1v0.5
		h2.1h2.9h2v-0.5h-2V81.9H341.3z"/>
	<path class="st2" d="M372.6,117.9V81.4h-3.1l-15.1,25.4l-4.1,7.5H350c0.1-1.8,0.2-3.7,0.3-5.5c0.1-1.8,0.1-3.7,0.1-5.5V81.9h2.2
		v-0.5h-2.2v0h-2.9v0h-1.9v0.5h1.9v36.1h-1.9v0.5h1.9v0h3.1l15.1-25.5l4.2-7.4h0.3c-0.1,1.8-0.2,3.6-0.3,5.3
		c-0.2,1.7-0.2,3.5-0.2,5.4v21.7h-2.2v0.5h2.2h2.9h1.9v-0.5H372.6z"/>
	<polygon class="st2" points="413,115.8 413,115.8 413,113.6 412.5,113.6 412.5,115.8 395,115.8 395,100.1 409.2,100.1 409.2,102.3 
		409.7,102.3 409.7,100.1 409.7,100.1 409.7,97.5 409.7,97.5 409.7,95.3 409.2,95.3 409.2,97.5 395,97.5 395,84 411.9,84 
		411.9,86.3 412.4,86.3 412.4,84 412.4,84 412.4,81.4 412.4,81.4 411.9,81.4 392,81.4 392,118.4 412.5,118.4 412.5,118.4 413,118.4 
		413,118.4 413,118.4 	"/>
	<polygon class="st2" points="385.9,81.9 385.9,81.4 383.8,81.4 380.8,81.4 378.9,81.4 378.9,81.9 380.8,81.9 380.8,117.9 
		378.9,117.9 378.9,118.4 380.8,118.4 383.8,118.4 385.9,118.4 385.9,117.9 383.8,117.9 383.8,81.9 	"/>
</g>
<g>
	<path class="st6" d="M132,119.1l17.8-38.3l17.2,38.3c0,0-8.1-8.8-17.3-8.8v-5.1h5.3L149.7,93l-11.9,26.1H132z"/>
	<polygon class="st6" points="110.3,119.1 110.3,80.8 115.8,80.8 115.8,114 131.5,114 128.9,119.1 	"/>
	<polygon class="st6" points="171.8,119.1 177.2,119.1 177.2,101.3 189,80.8 182.8,80.8 174.5,95.2 166.3,80.8 160,80.8 
		171.8,101.3 	"/>
	<path class="st6" d="M92.4,80.8H87l0.1,38.3h5.4l-0.1-33.3l9.5,5.6l-7.5,5.8v5c0,0,12.7,0.7,12.7-10.7S92.4,80.8,92.4,80.8z"/>
	<g>
		<path class="st6" d="M199.8,103.5h8.3v3.7h-8.3V103.5z"/>
	</g>
	<path class="st6" d="M259.4,119c-2.2,0-4.3-0.4-6.2-1.3s-3.5-2.2-4.8-3.9c-1.4-1.7-2.4-3.7-3.2-6.1s-1.1-5-1.1-8
		c0-2.9,0.4-5.6,1.1-7.9c0.8-2.3,1.8-4.3,3.2-6s3-2.9,4.8-3.8c1.9-0.9,3.9-1.3,6.2-1.3s4.3,0.4,6.2,1.3c1.9,0.9,3.5,2.1,4.8,3.8
		c1.4,1.7,2.4,3.7,3.2,6c0.8,2.3,1.1,5,1.1,7.9s-0.4,5.6-1.1,8c-0.8,2.4-1.8,4.4-3.2,6.1c-1.4,1.7-3,3-4.8,3.9
		C263.7,118.6,261.7,119,259.4,119z M259.4,116.3c1.8,0,3.5-0.4,5-1.2c1.5-0.8,2.8-1.9,3.9-3.3s1.9-3.2,2.5-5.2s0.9-4.3,0.9-6.8
		s-0.3-4.8-0.9-6.8s-1.4-3.7-2.5-5.1s-2.4-2.5-3.9-3.2c-1.5-0.8-3.2-1.1-5-1.1s-3.5,0.4-5,1.1c-1.5,0.8-2.8,1.8-3.8,3.2
		c-1.1,1.4-1.9,3.1-2.5,5.1s-0.9,4.3-0.9,6.8s0.3,4.8,0.9,6.8c0.6,2,1.4,3.8,2.5,5.2c1.1,1.4,2.3,2.5,3.8,3.3
		C255.9,115.9,257.6,116.3,259.4,116.3z"/>
	<path class="st6" d="M238.7,81L238.7,81l-3.1,0v0h-1.9v0.5h1.9v26.4c0,3-0.5,5.2-1.6,6.6c-1.1,1.3-2.8,2-5,2c-1.5,0-2.9-0.3-4-1
		c-1.1-0.7-3.2-2.4-1.7-8.7l-3.7,6.9c1,1.9,2.3,3.3,3.9,4.2c1.6,0.9,3.5,1.4,5.7,1.4c1.8,0,3.2-0.3,4.3-0.9c1.2-0.6,2.2-1.4,3-2.4
		c0.8-1,1.4-2.2,1.7-3.5s0.5-2.8,0.5-4.3V81.5h1.9V81H238.7z"/>
	<polygon class="st6" points="307.9,81.9 307.9,81.4 305.9,81.4 302.9,81.4 300.9,81.4 300.9,81.9 302.9,81.9 302.9,97.5 
		283.7,97.5 283.7,81.9 285.7,81.9 285.7,81.4 283.7,81.4 280.7,81.4 278.7,81.4 278.7,81.9 280.7,81.9 280.7,117.9 278.7,117.9 
		278.7,118.4 280.7,118.4 283.7,118.4 285.7,118.4 285.7,117.9 283.7,117.9 283.7,100.1 302.9,100.1 302.9,117.9 300.9,117.9 
		300.9,118.4 302.9,118.4 305.9,118.4 307.9,118.4 307.9,117.9 305.9,117.9 305.9,81.9 	"/>
	<path class="st6" d="M341.3,81.9v-0.5h-2v0h-3.1l-15.1,25.4l-4.1,7.5h-0.3c0.1-1.8,0.2-3.7,0.3-5.5c0.1-1.8,0.1-3.7,0.1-5.5V81.9h2
		v-0.5h-2v0h-2.9v0h-2.1v0.5h2.1v36.5h3.1l15.1-25.5l4.2-7.4h0.3c-0.1,1.8-0.2,3.6-0.3,5.3c-0.2,1.7-0.2,3.5-0.2,5.4v21.7h-2.1v0.5
		h2.1h2.9h2v-0.5h-2V81.9H341.3z"/>
	<path class="st6" d="M372.6,117.9V81.4h-3.1l-15.1,25.4l-4.1,7.5H350c0.1-1.8,0.2-3.7,0.3-5.5c0.1-1.8,0.1-3.7,0.1-5.5V81.9h2.2
		v-0.5h-2.2v0h-2.9v0h-1.9v0.5h1.9v36.1h-1.9v0.5h1.9v0h3.1l15.1-25.5l4.2-7.4h0.3c-0.1,1.8-0.2,3.6-0.3,5.3
		c-0.2,1.7-0.2,3.5-0.2,5.4v21.7h-2.2v0.5h2.2h2.9h1.9v-0.5H372.6z"/>
	<polygon class="st6" points="413,115.8 413,115.8 413,113.6 412.5,113.6 412.5,115.8 395,115.8 395,100.1 409.2,100.1 409.2,102.3 
		409.7,102.3 409.7,100.1 409.7,100.1 409.7,97.5 409.7,97.5 409.7,95.3 409.2,95.3 409.2,97.5 395,97.5 395,84 411.9,84 
		411.9,86.3 412.4,86.3 412.4,84 412.4,84 412.4,81.4 412.4,81.4 411.9,81.4 392,81.4 392,118.4 412.5,118.4 412.5,118.4 413,118.4 
		413,118.4 413,118.4 	"/>
	<polygon class="st6" points="385.9,81.9 385.9,81.4 383.8,81.4 380.8,81.4 378.9,81.4 378.9,81.9 380.8,81.9 380.8,117.9 
		378.9,117.9 378.9,118.4 380.8,118.4 383.8,118.4 385.9,118.4 385.9,117.9 383.8,117.9 383.8,81.9 	"/>
</g>
</svg>
