<?xml version="1.0" encoding="utf-8"?>
<!-- Generator: Adobe Illustrator 22.0.1, SVG Export Plug-In . SVG Version: 6.00 Build 0)  -->
<svg version="1.1" id="레이어_1" xmlns="http://www.w3.org/2000/svg" xmlns:xlink="http://www.w3.org/1999/xlink" x="0px"
	 y="0px" viewBox="0 0 326 38.6" style="enable-background:new 0 0 326 38.6;" xml:space="preserve">
<style type="text/css">
	.st0{display:none;}
	.st1{display:inline;}
	.st2{fill:#1F2020;}
	.st3{fill:#EC6C5F;}
	.st4{fill:#FFFFFF;}
</style>
<g class="st0">
	<g class="st1">
		<path class="st2" d="M45,38.4L62.8,0.1L80,38.4c0,0-8.1-8.8-17.3-8.8v-5.1H68l-5.3-12.2L50.8,38.4H45z"/>
		<polygon class="st2" points="23.3,38.4 23.3,0.1 28.8,0.1 28.8,33.3 44.5,33.3 41.9,38.4 		"/>
		<polygon class="st2" points="84.8,38.4 90.2,38.4 90.2,20.6 102,0.1 95.8,0.1 87.5,14.5 79.3,0.1 73,0.1 84.8,20.6 		"/>
		<path class="st2" d="M5.4,0.1H0l0.1,38.3h5.4L5.4,5.1l9.5,5.6l-7.5,5.8v5c0,0,12.7,0.7,12.7-10.7S5.4,0.1,5.4,0.1z"/>
		<g>
			<path class="st2" d="M112.8,22.8h8.3v3.7h-8.3V22.8z"/>
		</g>
		<path class="st2" d="M172.4,38.3c-2.2,0-4.3-0.4-6.2-1.3s-3.5-2.2-4.8-3.9c-1.4-1.7-2.4-3.7-3.2-6.1s-1.1-5-1.1-8
			c0-2.9,0.4-5.6,1.1-7.9c0.8-2.3,1.8-4.3,3.2-6s3-2.9,4.8-3.8c1.9-0.9,3.9-1.3,6.2-1.3s4.3,0.4,6.2,1.3c1.9,0.9,3.5,2.1,4.8,3.8
			c1.4,1.7,2.4,3.7,3.2,6c0.8,2.3,1.1,5,1.1,7.9s-0.4,5.6-1.1,8c-0.8,2.4-1.8,4.4-3.2,6.1c-1.4,1.7-3,3-4.8,3.9
			C176.7,37.9,174.7,38.3,172.4,38.3z M172.4,35.6c1.8,0,3.5-0.4,5-1.2c1.5-0.8,2.8-1.9,3.9-3.3s1.9-3.2,2.5-5.2s0.9-4.3,0.9-6.8
			s-0.3-4.8-0.9-6.8s-1.4-3.7-2.5-5.1s-2.4-2.5-3.9-3.2c-1.5-0.8-3.2-1.1-5-1.1s-3.5,0.4-5,1.1c-1.5,0.8-2.8,1.8-3.8,3.2
			c-1.1,1.4-1.9,3.1-2.5,5.1s-0.9,4.3-0.9,6.8s0.3,4.8,0.9,6.8c0.6,2,1.4,3.8,2.5,5.2c1.1,1.4,2.3,2.5,3.8,3.3
			C168.9,35.2,170.6,35.6,172.4,35.6z"/>
		<path class="st2" d="M193.7,0.7h3v16.1h19.2V0.7h3v37h-3V19.4h-19.2v18.3h-3V0.7z"/>
		<path class="st2" d="M252.3,37.7h-2.9V15.5c0-1.9,0-3.7,0.2-5.4c0.1-1.7,0.2-3.5,0.3-5.3h-0.3l-4.2,7.4l-15.1,25.5h-3.1v-37h2.9
			v21.9c0,1.8,0,3.7-0.1,5.5s-0.2,3.7-0.3,5.5h0.3l4.1-7.5l15.1-25.4h3.1V37.7z"/>
		<path class="st2" d="M285.6,37.7h-2.9V15.5c0-1.9,0-3.7,0.2-5.4c0.1-1.7,0.2-3.5,0.3-5.3h-0.3l-4.2,7.4l-15.1,25.5h-3.1v-37h2.9
			v21.9c0,1.8,0,3.7-0.1,5.5s-0.2,3.7-0.3,5.5h0.3l4.1-7.5l15.1-25.4h3.1V37.7z"/>
		<path class="st2" d="M293.8,0.7h3v37h-3V0.7z"/>
		<path class="st2" d="M305,0.7h20.4v2.6H308v13.5h14.7v2.6H308v15.7h18v2.6h-21V0.7z"/>
		<g>
			<path class="st2" d="M142.2,38.6c-2.2,0-4.1-0.5-5.7-1.4c-1.6-0.9-2.9-2.3-3.9-4.2l3.7-6.9c-1.5,6.3,0.6,8,1.7,8.7
				c1.1,0.7,2.5,1,4,1c2.2,0,3.9-0.7,5-2c1.1-1.4,1.6-3.6,1.6-6.6V0.3h3.1v27.2c0,1.5-0.2,3-0.5,4.3s-0.9,2.5-1.7,3.5
				s-1.8,1.8-3,2.4C145.4,38.3,144,38.6,142.2,38.6z"/>
		</g>
	</g>
	<path class="st3" d="M75.6,28.6l4.4,9.8c0,0-4.2-4.5-9.9-7L75.6,28.6z"/>
</g>
<g>
	<path class="st4" d="M45,38.4L62.8,0.1L80,38.4c0,0-8.1-8.8-17.3-8.8v-5.1H68l-5.3-12.2L50.8,38.4H45z"/>
	<polygon class="st4" points="23.3,38.4 23.3,0.1 28.8,0.1 28.8,33.3 44.5,33.3 41.9,38.4 	"/>
	<polygon class="st4" points="84.8,38.4 90.2,38.4 90.2,20.6 102,0.1 95.8,0.1 87.5,14.5 79.3,0.1 73,0.1 84.8,20.6 	"/>
	<path class="st4" d="M5.4,0.1H0l0.1,38.3h5.4L5.4,5.1l9.5,5.6l-7.5,5.8v5c0,0,12.7,0.7,12.7-10.7S5.4,0.1,5.4,0.1z"/>
	<g>
		<path class="st4" d="M112.8,22.8h8.3v3.7h-8.3V22.8z"/>
	</g>
	<path class="st4" d="M172.4,38.3c-2.2,0-4.3-0.4-6.2-1.3s-3.5-2.2-4.8-3.9c-1.4-1.7-2.4-3.7-3.2-6.1s-1.1-5-1.1-8
		c0-2.9,0.4-5.6,1.1-7.9c0.8-2.3,1.8-4.3,3.2-6s3-2.9,4.8-3.8c1.9-0.9,3.9-1.3,6.2-1.3s4.3,0.4,6.2,1.3c1.9,0.9,3.5,2.1,4.8,3.8
		c1.4,1.7,2.4,3.7,3.2,6c0.8,2.3,1.1,5,1.1,7.9s-0.4,5.6-1.1,8c-0.8,2.4-1.8,4.4-3.2,6.1c-1.4,1.7-3,3-4.8,3.9
		C176.7,37.9,174.7,38.3,172.4,38.3z M172.4,35.6c1.8,0,3.5-0.4,5-1.2c1.5-0.8,2.8-1.9,3.9-3.3s1.9-3.2,2.5-5.2s0.9-4.3,0.9-6.8
		s-0.3-4.8-0.9-6.8s-1.4-3.7-2.5-5.1s-2.4-2.5-3.9-3.2c-1.5-0.8-3.2-1.1-5-1.1s-3.5,0.4-5,1.1c-1.5,0.8-2.8,1.8-3.8,3.2
		c-1.1,1.4-1.9,3.1-2.5,5.1s-0.9,4.3-0.9,6.8s0.3,4.8,0.9,6.8c0.6,2,1.4,3.8,2.5,5.2c1.1,1.4,2.3,2.5,3.8,3.3
		C168.9,35.2,170.6,35.6,172.4,35.6z"/>
	<path class="st4" d="M193.7,0.7h3v16.1h19.2V0.7h3v37h-3V19.4h-19.2v18.3h-3V0.7z"/>
	<path class="st4" d="M252.3,37.7h-2.9V15.5c0-1.9,0-3.7,0.2-5.4c0.1-1.7,0.2-3.5,0.3-5.3h-0.3l-4.2,7.4l-15.1,25.5h-3.1v-37h2.9
		v21.9c0,1.8,0,3.7-0.1,5.5s-0.2,3.7-0.3,5.5h0.3l4.1-7.5l15.1-25.4h3.1V37.7z"/>
	<path class="st4" d="M285.6,37.7h-2.9V15.5c0-1.9,0-3.7,0.2-5.4c0.1-1.7,0.2-3.5,0.3-5.3h-0.3l-4.2,7.4l-15.1,25.5h-3.1v-37h2.9
		v21.9c0,1.8,0,3.7-0.1,5.5s-0.2,3.7-0.3,5.5h0.3l4.1-7.5l15.1-25.4h3.1V37.7z"/>
	<path class="st4" d="M293.8,0.7h3v37h-3V0.7z"/>
	<path class="st4" d="M305,0.7h20.4v2.6H308v13.5h14.7v2.6H308v15.7h18v2.6h-21V0.7z"/>
	<g>
		<path class="st4" d="M142.2,38.6c-2.2,0-4.1-0.5-5.7-1.4c-1.6-0.9-2.9-2.3-3.9-4.2l3.7-6.9c-1.5,6.3,0.6,8,1.7,8.7
			c1.1,0.7,2.5,1,4,1c2.2,0,3.9-0.7,5-2c1.1-1.4,1.6-3.6,1.6-6.6V0.3h3.1v27.2c0,1.5-0.2,3-0.5,4.3s-0.9,2.5-1.7,3.5s-1.8,1.8-3,2.4
			C145.4,38.3,144,38.6,142.2,38.6z"/>
	</g>
</g>
</svg>
