<?xml version="1.0" encoding="utf-8"?>
<!-- Generator: Adobe Illustrator 22.0.1, SVG Export Plug-In . SVG Version: 6.00 Build 0)  -->
<svg version="1.1" id="레이어_1" xmlns="http://www.w3.org/2000/svg" xmlns:xlink="http://www.w3.org/1999/xlink" x="0px"
	 y="0px" viewBox="0 0 200 200" style="enable-background:new 0 0 200 200;" xml:space="preserve">
<style type="text/css">
	.st0{display:none;fill:#FFFFFF;}
	.st1{display:none;}
	.st2{display:inline;fill:#EC6C5F;}
	.st3{display:inline;fill:#1F2020;}
	.st4{fill:#EC6C5F;}
	.st5{fill:#FFFFFF;}
</style>
<circle class="st0" cx="91" cy="99" r="72.1"/>
<g class="st1">
	<path class="st2" d="M64.3,145.1L64.3,145.1l33.4-16.8c0.1-1.6,0.2-3.3,0.2-5v-13l-36,32.3C62.7,143.7,63.5,144.5,64.3,145.1z"/>
	<polygon class="st2" points="150.4,101.9 107.3,80.3 97.9,75.6 52.3,52.7 52.3,135.8 53.4,133.7 58.1,62.5 97.9,94.5 107.3,101.9 
		107.3,123.6 	"/>
	<polygon class="st3" points="112.6,42.3 107.3,42.3 97.9,42.3 92.5,42.3 92.5,43.6 97.9,43.6 97.9,75.6 107.3,80.3 107.3,43.6 
		112.6,43.6 	"/>
	<path class="st3" d="M97.9,94.5v15.8v13c0,1.8-0.1,3.5-0.2,5c-0.5,6.6-2.1,11.5-4.7,14.8c-3.3,4.1-8.3,6.1-15,6.1
		c-4.7,0-8.7-1-12.1-3c-0.5-0.3-1-0.6-1.6-1.1c-0.8-0.6-1.6-1.5-2.4-2.6c-2.4-3.6-4.1-10.1-1.2-22.5l-7.4,13.6l-1.1,2.1l-2.7,4.9
		c0.8,1.5,1.7,2.9,2.7,4.2c0.1,0.2,0.3,0.3,0.4,0.5c0.8,1.1,1.7,2.1,2.6,3.1c0.3,0.3,0.5,0.5,0.8,0.8c1.6,1.6,3.4,2.9,5.3,4.1
		c4.8,2.8,10.5,4.3,17,4.3c5.3,0,9.7-0.9,13.4-2.6c3.6-1.7,6.6-4.1,8.9-7.1c2.3-3.1,4-6.6,5-10.6s1.6-8.4,1.6-13.1v-0.7v-21.6
		L97.9,94.5z"/>
</g>
<g>
	<path class="st4" d="M64.4,145.1L64.4,145.1l33.4-16.8c0.1-1.6,0.2-3.3,0.2-5v-13l-36,32.3C62.8,143.7,63.5,144.5,64.4,145.1z"/>
	<polygon class="st4" points="150.4,101.9 107.4,80.3 97.9,75.6 52.3,52.7 52.3,135.8 53.5,133.7 58.1,62.5 97.9,94.5 107.4,101.9 
		107.4,123.6 	"/>
	<polygon class="st5" points="112.6,42.3 107.4,42.3 97.9,42.3 92.6,42.3 92.6,43.6 97.9,43.6 97.9,75.6 107.4,80.3 107.4,43.6 
		112.6,43.6 	"/>
	<path class="st5" d="M97.9,94.5v15.8v13c0,1.8-0.1,3.5-0.2,5c-0.5,6.6-2.1,11.5-4.7,14.8c-3.3,4.1-8.3,6.1-15,6.1
		c-4.7,0-8.7-1-12.1-3c-0.5-0.3-1-0.6-1.6-1.1c-0.8-0.6-1.6-1.5-2.4-2.6c-2.4-3.6-4.1-10.1-1.2-22.5l-7.4,13.6l-1.1,2.1l-2.7,4.9
		c0.8,1.5,1.7,2.9,2.7,4.2c0.1,0.2,0.3,0.3,0.4,0.5c0.8,1.1,1.7,2.1,2.6,3.1c0.3,0.3,0.5,0.5,0.8,0.8c1.6,1.6,3.4,2.9,5.3,4.1
		c4.8,2.8,10.5,4.3,17,4.3c5.3,0,9.7-0.9,13.4-2.6c3.6-1.7,6.6-4.1,8.9-7.1c2.3-3.1,4-6.6,5-10.6s1.6-8.4,1.6-13.1v-0.7v-21.6
		L97.9,94.5z"/>
</g>
</svg>
