<?xml version="1.0" encoding="UTF-8" standalone="no"?>
<!DOCTYPE svg PUBLIC "-//W3C//DTD SVG 1.1//EN" "http://www.w3.org/Graphics/SVG/1.1/DTD/svg11.dtd">
<svg width="100%" height="100%" viewBox="0 0 100 116" version="1.1" xmlns="http://www.w3.org/2000/svg" xmlns:xlink="http://www.w3.org/1999/xlink" xml:space="preserve" xmlns:serif="http://www.serif.com/" style="fill-rule:evenodd;clip-rule:evenodd;stroke-linejoin:round;stroke-miterlimit:1.41421;">
    <g transform="matrix(1,0,0,1,-50,-42)">
        <path d="M64.4,145.1L97.8,128.3C97.9,126.7 98,125 98,123.3L98,110.3L62,142.6C62.8,143.7 63.5,144.5 64.4,145.1Z" style="fill:rgb(236,108,95);fill-rule:nonzero;"/>
        <path d="M150.4,101.9L107.4,80.3L97.9,75.6L52.3,52.7L52.3,135.8L53.5,133.7L58.1,62.5L97.9,94.5L107.4,101.9L107.4,123.6L150.4,101.9Z" style="fill:rgb(236,108,95);fill-rule:nonzero;"/>
        <path d="M112.6,42.3L107.4,42.3L97.9,42.3L92.6,42.3L92.6,43.6L97.9,43.6L97.9,75.6L107.4,80.3L107.4,43.6L112.6,43.6L112.6,42.3Z" style="fill:white;fill-rule:nonzero;"/>
        <path d="M97.9,94.5L97.9,123.3C97.9,125.1 97.8,126.8 97.7,128.3C97.2,134.9 95.6,139.8 93,143.1C89.7,147.2 84.7,149.2 78,149.2C73.3,149.2 69.3,148.2 65.9,146.2C65.4,145.9 64.9,145.6 64.3,145.1C63.5,144.5 62.7,143.6 61.9,142.5C59.5,138.9 57.8,132.4 60.7,120L53.3,133.6L52.2,135.7L49.5,140.6C50.3,142.1 51.2,143.5 52.2,144.8C52.3,145 52.5,145.1 52.6,145.3C53.4,146.4 54.3,147.4 55.2,148.4C55.5,148.7 55.7,148.9 56,149.2C57.6,150.8 59.4,152.1 61.3,153.3C66.1,156.1 71.8,157.6 78.3,157.6C83.6,157.6 88,156.7 91.7,155C95.3,153.3 98.3,150.9 100.6,147.9C102.9,144.8 104.6,141.3 105.6,137.3C106.6,133.3 107.2,128.9 107.2,124.2L107.2,123.5L107.2,101.9L97.9,94.5Z" style="fill:white;fill-rule:nonzero;"/>
    </g>
</svg>
